<svg width="35" height="36" viewBox="0 0 35 36" fill="none" xmlns="http://www.w3.org/2000/svg">
<g clip-path="url(#clip0_6738_620)">
<path d="M17.8153 0.467773C19.0971 0.79593 20.1534 1.47275 20.8815 2.60079C21.6403 3.78011 22.6863 3.91342 23.9374 3.53399C27.0344 2.59054 29.2187 4.1903 29.2187 7.4206C29.2187 8.82552 29.8443 9.6049 31.1569 10.0459C34.2334 11.0611 35.064 13.5735 33.2181 16.2296C32.3567 17.4704 32.3875 18.5985 33.2386 19.8188C34.9717 22.3005 34.1308 24.9155 31.2594 25.8589C29.7725 26.3409 29.1367 27.2536 29.1469 28.7918C29.1674 31.694 26.9011 33.4168 24.1425 32.5451C22.594 32.0631 21.5275 32.3708 20.5533 33.7142C18.892 35.9908 16.0822 36.0933 14.3696 33.8578C13.2518 32.4118 12.134 32.0837 10.4112 32.5861C7.73468 33.3553 5.61191 31.6529 5.62217 28.8123C5.62217 27.2126 4.9556 26.3307 3.45838 25.8384C0.679301 24.9257 -0.182111 22.2492 1.5202 19.8701C2.44314 18.5779 2.46365 17.4396 1.5202 16.1475C-0.0898173 13.9427 0.525477 11.3585 3.03793 10.415C4.91458 9.7177 5.62217 8.66144 5.72472 6.70276C5.86828 3.99546 8.11411 2.60079 10.7189 3.42119C12.2263 3.90317 13.3441 3.65705 14.2363 2.28289C14.8823 1.28817 15.9078 0.785676 17.0359 0.478028H17.8153V0.467773ZM9.48827 5.86186C8.37048 5.72854 8.33972 6.30282 8.31921 6.73352C8.21666 9.44082 7.34499 11.6354 4.50438 12.5173C3.1815 12.9275 2.9764 13.6658 3.77628 14.7734C5.31452 16.9064 5.30426 19.0804 3.77628 21.2135C2.99691 22.3005 3.20201 22.967 4.46336 23.3875C6.93479 24.2079 8.2064 25.9102 8.25768 28.5457C8.27819 29.4071 8.31921 30.5044 9.74464 30.0327C12.5442 29.1097 14.7901 29.8378 16.5026 32.2375C17.282 33.3245 17.9691 32.7502 18.5331 32.0016C20.1944 29.7763 22.3274 29.1405 24.9322 30.0122C26.173 30.4326 26.5832 29.8071 26.6037 28.6893C26.6345 26.1256 27.7625 24.3822 30.2237 23.4388C31.9465 22.7825 31.9568 22.5774 30.8595 20.8545C29.6084 18.8856 29.6186 16.9679 30.8697 14.999C31.9465 13.3172 31.9055 13.1326 30.0288 12.4045C27.7523 11.5123 26.6345 9.90229 26.5935 7.49238C26.5729 6.34384 26.2448 5.46191 24.8399 5.92338C22.2556 6.77454 20.1636 6.14899 18.5536 3.93393C17.7537 2.8264 17.0154 2.9187 16.2052 3.95444C15.0772 5.41064 13.7133 6.50791 11.7136 6.25154C10.8214 6.13874 9.94974 5.93364 9.46776 5.8516L9.48827 5.86186Z" fill="white"/>
<path d="M12.7085 17.3164C13.5699 17.4907 14.1237 18.4445 14.8005 19.1726C15.385 19.7878 15.6927 19.8084 16.2875 19.1726C18.1436 17.2241 20.0818 15.3475 21.9789 13.4298C22.5942 12.8145 23.3018 12.6709 23.9376 13.2965C24.5939 13.9323 24.4504 14.6604 23.8248 15.2859C21.4252 17.6856 19.0255 20.0955 16.6156 22.4951C15.908 23.2027 15.1902 23.213 14.4723 22.4951C13.4879 21.5107 12.5034 20.5262 11.5189 19.5417C11.0985 19.111 11.0164 18.5983 11.2318 18.065C11.4471 17.542 11.8676 17.2959 12.6982 17.3164H12.7085Z" fill="white"/>
</g>
<defs>
<clipPath id="clip0_6738_620">
<rect width="33.5643" height="35" fill="white" transform="translate(0.62793 0.467773)"/>
</clipPath>
</defs>
</svg>
