<svg width="36" height="36" viewBox="0 0 36 36" fill="none" xmlns="http://www.w3.org/2000/svg">
<g clip-path="url(#clip0_6738_602)">
<path d="M0.584961 1.45688C0.873451 0.77687 1.368 0.467773 2.13044 0.467773C12.7943 0.478077 23.4581 0.467773 34.1322 0.467773C35.1831 0.467773 35.8528 1.39506 35.5128 2.34296C35.3171 2.86842 34.8225 3.22903 34.2661 3.23934C33.9158 3.23934 33.5552 3.24964 33.2049 3.23934C32.937 3.22903 32.8443 3.31146 32.8443 3.58965C32.8546 4.48602 32.8443 5.39271 32.8443 6.28909C32.8443 9.19459 32.8443 12.0898 32.8443 14.9953C32.8443 15.665 32.3497 16.2523 31.7213 16.345C30.9794 16.4584 30.3303 16.0668 30.114 15.3868C30.0624 15.2117 30.0624 15.0262 30.0624 14.8407C30.0624 11.1316 30.0624 7.42244 30.0624 3.71328C30.0624 3.40419 29.9079 3.24964 29.5988 3.24964C28.9806 3.24964 28.3727 3.25994 27.7545 3.24964C27.4454 3.23934 27.363 3.35267 27.3733 3.64116C27.3939 4.25935 27.3836 4.86724 27.3733 5.48544C27.3424 7.08243 26.6212 8.29821 25.2302 9.04004C23.355 10.0395 21.4387 10.977 19.5223 11.894C18.3786 12.4504 17.1731 12.4401 16.0295 11.8837C14.1337 10.9667 12.2482 10.0395 10.3833 9.05035C8.96147 8.29821 8.22994 7.07213 8.20933 5.44422C8.20933 4.85694 8.18873 4.25935 8.20933 3.67207C8.21964 3.35267 8.12691 3.23934 7.79721 3.23934C5.92202 3.24964 4.03654 3.22903 2.16135 3.25994C1.38861 3.27025 0.873451 2.97145 0.584961 2.27083V1.44658L0.584961 1.45688ZM17.8119 3.25994C15.6586 3.25994 13.5052 3.25994 11.3621 3.25994C11.0839 3.25994 10.9706 3.33207 10.9912 3.62056C11.0118 4.16663 10.9912 4.7127 10.9912 5.25877C10.9912 5.85635 11.2179 6.35091 11.7845 6.62909C13.5876 7.53577 15.3804 8.43215 17.1834 9.32853C17.575 9.52429 17.9768 9.5346 18.3683 9.33884C20.2023 8.43215 22.0362 7.51517 23.8599 6.58788C24.2617 6.38182 24.4884 6.04181 24.5502 5.58847C24.643 4.93937 24.5502 4.29026 24.6017 3.64116C24.6223 3.31146 24.4987 3.23934 24.1896 3.23934C22.0568 3.24964 19.9344 3.23934 17.8016 3.23934L17.8119 3.25994Z" fill="white"/>
<path d="M16.5653 35.4676C15.6483 35.3234 14.721 35.1894 13.8452 34.8597C9.26029 33.1391 6.4063 29.8936 5.63356 25.0305C4.95355 20.7134 6.34448 17.0249 9.52817 14.0267C10.1155 13.4703 10.9912 13.5012 11.5167 14.0576C12.0525 14.6242 12.0422 15.4897 11.4549 16.0461C9.98152 17.437 8.9718 19.0855 8.50816 21.0637C7.33359 26.0917 10.5379 31.2536 15.5762 32.4282C20.9647 33.6852 26.2709 30.2027 27.1673 24.7523C27.6824 21.6201 26.786 18.8589 24.6018 16.5303C24.4266 16.3449 24.2412 16.18 24.066 16.0049C23.5405 15.4485 23.5302 14.6139 24.0557 14.0679C24.5606 13.5321 25.4363 13.4806 26.003 13.9854C28.0533 15.8297 29.3825 18.0964 29.877 20.8062C30.6498 25.0202 29.537 28.7293 26.5697 31.8203C24.7048 33.7676 22.3866 34.9319 19.718 35.3646C19.4811 35.4058 19.2441 35.4367 19.0174 35.4779H16.555L16.5653 35.4676Z" fill="white"/>
<path d="M16.6477 25.1953C17.2041 25.1953 17.7604 25.1953 18.3168 25.1953C18.595 25.1953 18.8629 25.1232 19.0174 24.8553C19.2132 24.5153 19.0586 24.1031 18.6877 23.9589C18.5126 23.8868 18.3374 23.8868 18.152 23.8868C17.575 23.8662 16.9877 23.9589 16.421 23.8353C14.9374 23.5159 13.7731 22.2486 13.6804 20.8576C13.5567 19.1267 14.4428 17.7151 16.0192 17.1897C16.318 17.0867 16.4416 16.963 16.4107 16.6436C16.3798 16.3139 16.4107 15.9842 16.4107 15.6545C16.4107 14.8612 16.998 14.2842 17.8017 14.2842C18.595 14.2842 19.1823 14.8612 19.1926 15.6545C19.1926 15.9945 19.2029 16.3345 19.1926 16.6745C19.1823 16.9218 19.2647 17.0248 19.5223 17.0145C19.8829 16.9939 20.2538 17.0145 20.6144 17.0145C21.3769 17.0248 21.9332 17.6327 21.9332 18.4261C21.9332 19.1885 21.3666 19.7861 20.6144 19.7964C19.5429 19.7964 18.4714 19.7964 17.3998 19.7964C16.8229 19.7964 16.4932 20.0437 16.4828 20.4455C16.4828 20.8576 16.8125 21.0946 17.3895 21.1152C17.9768 21.1255 18.5744 21.0431 19.1617 21.1667C20.6556 21.4758 21.8199 22.7637 21.9332 24.165C22.0878 26.1329 20.8514 27.4208 19.6047 27.8123C19.2853 27.9153 19.1617 28.0493 19.1926 28.379C19.2235 28.6984 19.1926 29.0178 19.1926 29.3372C19.1926 30.1511 18.6053 30.7281 17.7811 30.7178C16.9877 30.7178 16.421 30.1408 16.4107 29.3269C16.4107 28.9869 16.4004 28.6469 16.4107 28.3068C16.4107 28.0802 16.3386 27.9771 16.1016 27.9874C15.741 27.9978 15.3701 27.9874 15.0095 27.9874C14.2367 27.9771 13.6804 27.3796 13.6804 26.5965C13.6804 25.8135 14.2471 25.2262 15.0198 25.2159C15.5659 25.2159 16.1119 25.2159 16.658 25.2159L16.6477 25.1953Z" fill="white"/>
</g>
<defs>
<clipPath id="clip0_6738_602">
<rect width="35.0103" height="35" fill="white" transform="translate(0.584961 0.467773)"/>
</clipPath>
</defs>
</svg>
