<svg width="36" height="36" viewBox="0 0 36 36" fill="none" xmlns="http://www.w3.org/2000/svg">
<g clip-path="url(#clip0_6738_610)">
<path d="M9.90826 0.467773H8.30702C7.87911 0.467773 7.53223 0.81466 7.53223 1.24257V8.23637C7.53223 8.66428 7.87911 9.01116 8.30702 9.01116H9.90826C10.3362 9.01116 10.6831 8.66428 10.6831 8.23637V1.24257C10.6831 0.81466 10.3362 0.467773 9.90826 0.467773Z" fill="white"/>
<path d="M18.9888 0.467773H17.3876C16.9597 0.467773 16.6128 0.81466 16.6128 1.24257V8.23637C16.6128 8.66428 16.9597 9.01116 17.3876 9.01116H18.9888C19.4167 9.01116 19.7636 8.66428 19.7636 8.23637V1.24257C19.7636 0.81466 19.4167 0.467773 18.9888 0.467773Z" fill="white"/>
<path d="M28.0796 0.467773H26.4784C26.0505 0.467773 25.7036 0.81466 25.7036 1.24257V8.23637C25.7036 8.66428 26.0505 9.01116 26.4784 9.01116H28.0796C28.5076 9.01116 28.8544 8.66428 28.8544 8.23637V1.24257C28.8544 0.81466 28.5076 0.467773 28.0796 0.467773Z" fill="white"/>
<path d="M30.9722 35.468H5.49698C2.92467 35.468 0.837891 33.3812 0.837891 30.8089V7.78206C0.837891 5.22008 2.92467 3.1333 5.49698 3.1333H30.9722C33.5445 3.1333 35.6313 5.22008 35.6313 7.79239V30.8193C35.6313 33.3812 33.5445 35.4783 30.9722 35.4783V35.468ZM5.49698 6.749C4.9288 6.749 4.45359 7.21388 4.45359 7.79239V30.8193C4.45359 31.3874 4.91847 31.8626 5.49698 31.8626H30.9722C31.5404 31.8626 32.0156 31.3978 32.0156 30.8193V7.78206C32.0156 7.21388 31.5507 6.73867 30.9722 6.73867H5.49698V6.749Z" fill="white"/>
<path d="M19.5778 18.1226C19.5778 19.5999 19.5778 21.0668 19.5778 22.5441C19.5778 23.2156 19.0716 23.8045 18.4414 23.8974C17.7079 24.0111 17.0468 23.5978 16.8402 22.916C16.7988 22.7714 16.7988 22.6268 16.7988 22.4718C16.7988 19.5483 16.7988 16.6247 16.7988 13.7011C16.7988 12.854 17.3773 12.2652 18.2141 12.2755C19.0096 12.2755 19.5881 12.8747 19.5881 13.7011C19.5881 15.1784 19.5881 16.6454 19.5881 18.1226H19.5778Z" fill="white"/>
<path d="M19.5773 27.3067C19.5773 28.1124 18.9782 28.7116 18.1724 28.7116C17.3873 28.7116 16.7881 28.1124 16.7881 27.3273C16.7881 26.5215 17.3873 25.9224 18.193 25.9224C18.9782 25.9224 19.5773 26.5215 19.5773 27.3067Z" fill="white"/>
</g>
<defs>
<clipPath id="clip0_6738_610">
<rect width="34.7831" height="35" fill="white" transform="translate(0.837891 0.467773)"/>
</clipPath>
</defs>
</svg>
