<svg width="29" height="35" viewBox="0 0 29 35" fill="none" xmlns="http://www.w3.org/2000/svg">
<g clip-path="url(#clip0_6738_627)">
<path d="M16.1596 0.467773C17.478 0.65762 18.7825 0.914191 20.0084 1.46387C24.7935 3.60779 27.6976 7.28954 28.5887 12.5711C29.1077 15.6468 28.4706 18.554 27.1996 21.3414C25.8602 24.2788 23.987 26.8429 21.8746 29.2363C20.6447 30.6303 19.3263 31.9323 17.9566 33.1809C16.1379 34.8387 13.5507 34.9213 11.6962 33.2739C8.56138 30.4905 5.76216 27.3934 3.5899 23.7482C2.30411 21.59 1.29956 19.3102 0.934408 16.7866C0.402222 13.1104 1.15661 9.71068 3.2232 6.6636C5.64329 3.09465 8.99567 1.04446 13.2213 0.512256C13.2718 0.505902 13.32 0.482866 13.3689 0.467773C14.2989 0.467773 15.2296 0.467773 16.1596 0.467773ZM25.5649 14.4743C25.5346 14.1415 25.5199 13.5306 25.4204 12.9349C24.4672 7.21805 19.418 3.09862 13.5468 3.76586C10.3063 4.13443 7.7293 5.75806 5.86238 8.49693C4.34817 10.7187 3.74917 13.2113 4.0343 15.893C4.2495 17.9186 5.02642 19.7646 6.02164 21.5129C8.03929 25.0573 10.7274 28.0193 13.7038 30.728C14.3929 31.3556 15.1255 31.35 15.8263 30.7272C17.3491 29.3729 18.7654 27.9097 20.0854 26.3497C21.7821 24.3447 23.294 22.2112 24.3731 19.7845C25.0856 18.1831 25.5463 16.5174 25.5649 14.4735V14.4743Z" fill="white"/>
<path d="M14.773 21.1076C11.3623 21.1997 8.51261 18.1685 8.51416 14.7267C8.51571 11.2896 11.4004 8.32988 14.7932 8.34577C18.1432 8.36086 21.0404 11.2999 21.0124 14.787C20.9852 18.1662 18.1883 21.1846 14.773 21.1076ZM17.82 14.7338C17.8131 13.0403 16.4465 11.6375 14.7792 11.6121C13.1329 11.5867 11.7018 13.0451 11.7073 14.7418C11.7127 16.4472 13.1485 17.9024 14.787 17.8643C16.4628 17.8254 17.8263 16.4178 17.82 14.7338Z" fill="white"/>
</g>
<defs>
<clipPath id="clip0_6738_627">
<rect width="28" height="34" fill="white" transform="translate(0.770508 0.467773)"/>
</clipPath>
</defs>
</svg>
